<?xml version="1.0" encoding="utf-8"?>
<!-- Generator: Adobe Illustrator 26.2.1, SVG Export Plug-In . SVG Version: 6.00 Build 0)  -->
<svg version="1.1" id="Layer_1" xmlns="http://www.w3.org/2000/svg" xmlns:xlink="http://www.w3.org/1999/xlink" x="0px" y="0px"
	 viewBox="0 0 400 200" style="enable-background:new 0 0 400 200;" xml:space="preserve">
<style type="text/css">
	.st0{fill:#F36F21;}
</style>
<g>
	<path class="st0" d="M327.6,144.1c-2.3,0-4.6,0-6.9,0.1c-0.6,0-0.8-0.2-0.8-0.8c0-2.7,0-5.3,0-8c0-10.2,0-20.3,0-30.5
		c0-1.2,0-1.2-1.2-1.2c-1.9,0-3.9,0-5.8,0c-1.1,0-1.1,0-1.1,1.1c0,12.8,0,25.6,0,38.3c0,0.3,0,0.6,0,1.1c-0.9,0-1.7,0-2.5,0
		c-1.4,0-2.8,0-4.2,0c-0.5,0-0.8-0.2-0.7-0.7c0-0.1,0-0.2,0-0.4c0-28.7,0-57.4,0-86.1c0-1.1,0-1.1,1.1-1.1c5.1,0,10.1,0,15.2,0
		c1.5,0,2.8,0.4,4,1.5c1.1,1,1.9,2,2.2,3.4c0.2,0.9,0.4,1.8,0.4,2.7c0.1,2,0,4,0,5.9c0,0.3,0.2,0.5,0.3,0.8c0,8,0,16,0,24.1
		c-0.1,0.3-0.3,0.7-0.3,1c-0.1,1.6-0.8,2.7-2.2,3.4c-0.6,0.3-1.2,0.6-1.9,1c0.4,0.2,0.7,0.4,1,0.6c1.5,0.6,3.3,2,3.1,3.9
		c0,0.3,0.2,0.6,0.3,0.9C327.6,118.1,327.6,131.1,327.6,144.1z M311.8,95.8c0.3,0,0.6,0.1,0.8,0.1c2.1,0,4.3,0,6.4,0
		c0.6,0,0.8-0.2,0.8-0.8c0-10.3,0-20.6,0-31c0-0.6-0.2-0.8-0.8-0.8c-2.1,0-4.3,0-6.4,0c-0.3,0-0.5,0.1-0.8,0.1
		C311.8,74.3,311.8,85,311.8,95.8z"/>
	<path class="st0" d="M261.8,144.1c-2.6,0-5.2,0-8,0c0.2-0.9,0.3-1.6,0.4-2.4c0-0.1,0-0.1,0-0.2c0.2-1.6,0.3-3.2,0.5-4.7
		c0.2-1.4,0.4-2.7,0.6-4.1c0-0.1,0-0.2,0-0.3c0.2-1.7,0.3-3.5,0.5-5.2c0.2-1.6,0.5-3.1,0.7-4.7c0.2-1.5,0.3-2.9,0.5-4.4
		c0.3-2.2,0.5-4.4,0.8-6.6c0.2-2,0.5-3.9,0.8-5.9c0.3-2.1,0.6-4.2,0.8-6.3c0.1-0.7,0.2-1.4,0.3-2.1c0.3-1.9,0.5-3.7,0.8-5.6
		c0.2-1.4,0.3-2.8,0.5-4.3c0.3-2.2,0.5-4.3,0.8-6.5c0.3-2,0.6-4.1,0.8-6.1c0.3-2,0.5-3.9,0.7-5.9c0.3-2.2,0.6-4.3,0.8-6.5
		c0.3-1.9,0.5-3.9,0.8-5.8c0-0.3,0.4-0.7,0.6-0.7c2.4,0,4.8,0,7.1,0c0.1,0,0.2,0,0.3,0.1c0,0.1,0.1,0.1,0.1,0.1
		c0.2,1.7,0.3,3.5,0.5,5.2c0.2,2.1,0.5,4.2,0.8,6.3c0.1,1,0.2,2,0.4,2.9c0.3,2.5,0.7,5,1,7.4c0.2,1.3,0.3,2.5,0.5,3.8
		c0.3,1.9,0.5,3.8,0.8,5.8c0,0,0,0.1,0,0.1c0.2,1.7,0.3,3.4,0.5,5c0.2,1.4,0.4,2.8,0.6,4.2c0.1,0.6,0,1.1,0.1,1.7
		c0.2,1.6,0.5,3.2,0.8,4.8c0,0,0,0.1,0,0.1c0.2,1.7,0.3,3.5,0.5,5.2c0.2,2.1,0.5,4.2,0.8,6.3c0.1,1,0.2,2.1,0.4,3.1
		c0.3,2.4,0.7,4.9,1,7.3c0.2,1.5,0.3,2.9,0.5,4.4c0.2,1.7,0.5,3.4,0.8,5.1c0,0.1,0,0.2,0,0.3c0.2,1.7,0.3,3.4,0.5,5.1
		c0.1,1,0.2,2,0.4,3.1c0.1,0.5-0.1,0.6-0.6,0.6c-2.3,0-4.6,0-6.9,0c-0.4,0-0.6-0.1-0.7-0.5c-0.1-0.6-0.2-1.2-0.2-1.7
		c-0.3-2.2-0.5-4.3-0.7-6.5c0-0.1,0-0.2,0-0.3c-0.2-1.9-0.3-3.9-0.5-5.8c-0.2-2-0.5-4-0.8-6c-0.2,0-0.4,0-0.7,0c-2.6,0-5.2,0-7.9,0
		c-0.7,0-0.9,0.2-1,0.9c-0.2,1.9-0.5,3.7-0.7,5.6c0,0,0,0.1,0,0.1c-0.2,2-0.3,4-0.5,5.9c-0.2,2.4-0.5,4.7-0.8,7
		C262.1,143.2,261.9,143.7,261.8,144.1z M272.9,115.2c-0.1-0.5-0.1-0.8-0.2-1.2c-0.2-1.9-0.3-3.9-0.5-5.8c-0.2-1.6-0.5-3.2-0.7-4.9
		c-0.2-1.2-0.2-2.5-0.3-3.7c-0.3-2.5-0.6-5-0.8-7.5c-0.1-1-0.3-2-0.4-3.1c-0.2-1.8-0.3-3.7-0.5-5.5c0-0.5-0.1-1-0.1-1.5
		c-0.1,0-0.2,0-0.3,0c-0.1,0.3-0.3,0.6-0.4,0.9c-0.3,2.3-0.5,4.7-0.8,7.1c-0.3,2.4-0.5,4.8-0.8,7.2c-0.1,1.2-0.3,2.5-0.4,3.7
		c-0.1,1.4-0.3,2.7-0.4,4.1c-0.1,0.7-0.1,1.3-0.2,2c-0.2,1.9-0.4,3.8-0.6,5.7c-0.1,0.5,0,1.1-0.2,1.6c-0.2,0.8-0.2,1,0.7,1
		c2.1,0,4.1,0,6.2,0C272.3,115.2,272.6,115.2,272.9,115.2z"/>
	<path class="st0" d="M206,56c0.1,0,0.2-0.1,0.4-0.1c2.3,0,4.6,0,6.9,0c0.5,0,0.6,0.2,0.7,0.7c0.1,1.8,0.3,3.7,0.5,5.5
		c0.1,1.2,0.2,2.4,0.4,3.6c0.3,2.5,0.6,4.9,0.8,7.4c0.2,2.2,0.5,4.3,0.7,6.5c0.1,1.3,0.3,2.7,0.4,4.1c0.3,2.4,0.6,4.8,0.8,7.2
		c0.3,2.3,0.5,4.7,0.8,7c0.3,2.4,0.5,4.9,0.8,7.3c0.3,2.4,0.5,4.7,0.8,7.1c0.1,1.1,0.2,2.2,0.4,3.3c0.1,0.8,0.3,1.6,0.5,2.4
		c0.1,0,0.1,0,0.2,0c0-0.4,0-0.9,0.1-1.3c0.2-1.8,0.5-3.6,0.7-5.4c0-0.3,0-0.5,0.1-0.8c0.2-1.7,0.3-3.4,0.5-5.1
		c0.2-1.7,0.5-3.3,0.7-5c0.2-1.8,0.3-3.6,0.5-5.5c0.2-2.1,0.5-4.1,0.8-6.2c0.1-1.2,0.2-2.3,0.4-3.5c0.2-1.7,0.5-3.3,0.7-5
		c0.2-1.7,0.3-3.4,0.5-5c0.2-2.2,0.5-4.4,0.7-6.6c0.1-1.2,0.3-2.4,0.4-3.6c0.3-2.2,0.5-4.5,0.8-6.7c0.1-0.7,0.2-1.5,0.4-2.2
		c2.6,0,5.1,0,7.8,0c-0.1,0.5-0.3,1-0.3,1.5c-0.2,1.6-0.4,3.3-0.5,4.9c-0.2,2.2-0.5,4.3-0.8,6.5c-0.3,2.1-0.6,4.1-0.8,6.2
		c-0.3,2.1-0.6,4.3-0.8,6.4c-0.1,0.9-0.2,1.8-0.3,2.7c-0.2,1.7-0.5,3.3-0.8,5c-0.2,1.5-0.3,3-0.5,4.5c-0.2,2.2-0.5,4.3-0.8,6.5
		c-0.3,2.1-0.6,4.2-0.8,6.2c-0.3,2.1-0.6,4.3-0.8,6.4c-0.1,0.7-0.2,1.4-0.3,2.1c-0.3,1.8-0.5,3.6-0.8,5.4c-0.2,1.5-0.3,3-0.5,4.5
		c-0.2,2.2-0.5,4.4-0.8,6.5c-0.3,2.1-0.6,4.2-0.8,6.2c-0.3,1.9-0.5,3.9-0.7,5.9c-0.1,0.5-0.3,0.8-0.9,0.8c-2.3,0-4.5,0-6.8,0
		c-0.5,0-0.6-0.2-0.6-0.6c-0.3-2.3-0.5-4.7-0.8-7c-0.1-1-0.2-2-0.4-3c-0.2-1.4-0.4-2.8-0.6-4.2c0-0.2-0.1-0.4-0.1-0.6
		c-0.2-1.6-0.3-3.3-0.5-4.9c-0.2-2.2-0.5-4.4-0.8-6.5c-0.3-2.2-0.5-4.4-0.8-6.5c-0.3-2.1-0.5-4.2-0.8-6.3c-0.1-1-0.2-2-0.4-3.1
		c-0.3-2.2-0.5-4.4-0.8-6.6c-0.2-1.9-0.5-3.8-0.7-5.8c-0.3-2.4-0.6-4.8-0.8-7.2c-0.3-2.1-0.5-4.2-0.8-6.3c-0.3-2.1-0.5-4.1-0.8-6.2
		c-0.3-2.2-0.5-4.4-0.8-6.5c-0.3-2.1-0.5-4.2-0.8-6.3C206,56.4,206,56.2,206,56z"/>
	<path class="st0" d="M185.8,144.2c-0.7,0-1.3,0-1.9,0c-1.8,0-3.6,0-5.4,0c-0.6,0-0.9-0.2-0.8-0.8c0-0.2,0-0.3,0-0.5
		c0-28.6,0-57.1,0-85.7c0-0.3,0-0.5,0-0.8c0.1-0.2,0.3-0.4,0.4-0.4c2.5,0,5,0,7.6,0C185.8,85.4,185.8,114.7,185.8,144.2z"/>
	<path class="st0" d="M119.4,100.1c0,0.4,0,0.9,0,1.3c0,1.3-0.9,2.3-2.2,2.3c-1.1,0-2.3-0.1-3.4-0.3c-0.8-0.1-1.5-1-1.5-1.8
		c0-1,0-2,0-3c0-0.9,0.8-1.6,1.7-1.9c0.9-0.4,1.9-0.3,2.8-0.2c0.9,0.1,1.9,0.1,2.4,1.1c0.2,0.3,0.2,0.7,0.3,1.1
		C119.4,99.1,119.4,99.6,119.4,100.1z"/>
	<path class="st0" d="M119.4,91.8c0,0.3,0,0.6,0,0.8c0.1,1.2-0.4,2.1-1.8,2.2c-1.2,0.1-2.5,0-3.8-0.1c-0.9-0.1-1.5-0.9-1.5-1.9
		c0-1.1,0.2-2.2,0.3-3.3c0.1-0.5,1.2-1.2,1.9-1.2c0.9,0,1.8-0.1,2.8,0c0.9,0.1,2.1,1,2,2.1C119.3,90.9,119.3,91.4,119.4,91.8
		C119.3,91.8,119.3,91.8,119.4,91.8z"/>
	<path class="st0" d="M119.5,108.4c-0.2,0.7-0.2,1.5-0.5,2.2c-0.3,0.7-1,1.1-1.9,1.1c-0.8,0-1.7,0-2.5,0c-0.7,0-1.3-0.4-1.8-0.9
		c-0.1-0.1-0.1-0.2-0.1-0.2c-0.1-1.2-0.3-2.3-0.3-3.5c0-1,0.7-1.7,2-1.9c1.1-0.1,2.3-0.1,3.5,0.1c1.1,0.2,1.4,0.8,1.5,1.9
		c0,0.4,0,0.8,0,1.1C119.4,108.4,119.4,108.4,119.5,108.4z"/>
	<path class="st0" d="M120.9,100c0.1-0.8,0.2-1.7,0.4-2.4c0.2-0.6,0.8-0.9,1.5-0.9c1,0,2,0,3,0.1c0.6,0,1.2,0.6,1.4,1.1
		c0.5,1.1,0.3,2.2,0.3,3.4c0,1.3-0.8,2.1-2.1,2.2c-0.9,0.1-1.8,0.1-2.7,0.1c-1,0-1.7-0.8-1.7-1.8c0-0.5,0-1.1,0-1.6
		C121,100,121,100,120.9,100z"/>
	<path class="st0" d="M110.7,100c0,0.5,0,1,0,1.6c0,1.2-0.7,1.8-1.8,1.8c-0.9,0-1.8,0-2.8-0.1c-1,0-1.8-0.8-1.8-1.9
		c0-0.9,0-1.8,0-2.7c0-1.3,0.7-2.1,2-2.1c0.9,0,1.8,0,2.7,0c1,0,1.6,0.7,1.6,1.7C110.7,98.9,110.7,99.5,110.7,100
		C110.7,100,110.7,100,110.7,100z"/>
	<path class="st0" d="M123.4,111.3c-0.4,0-0.8,0-1.2,0c-0.8,0-1.2-0.5-1.3-1.2c0-1.2,0-2.3,0.1-3.5c0-0.7,1-1.5,1.7-1.5
		c1.1,0,2.1,0,3.2,0c0.7,0,1.4,0.6,1.3,1.3c-0.1,1.2-0.2,2.3-0.4,3.5c-0.1,0.7-1.2,1.4-2.2,1.4C124.2,111.3,123.8,111.3,123.4,111.3
		C123.4,111.3,123.4,111.3,123.4,111.3z"/>
	<path class="st0" d="M124.3,95.2c-0.8-0.1-1.6-0.2-2.3-0.5c-0.6-0.2-1-0.7-1-1.5c0-1-0.1-2-0.1-3c0-1,0.5-1.5,1.4-1.4
		c1.2,0.1,2.4-0.2,3.4,0.4c0.4,0.3,0.9,0.7,1,1.1c0.3,1,0.4,2.1,0.4,3.2c0.1,1-0.6,1.6-1.6,1.6c-0.4,0-0.9,0-1.3,0
		C124.3,95.1,124.3,95.1,124.3,95.2z"/>
	<path class="st0" d="M107.4,104.9c0.7,0.1,1.5,0.2,2.2,0.3c0.9,0.2,1.2,1,1.3,1.8c0.1,0.9,0.1,1.9,0.1,2.8c0,0.7-0.6,1.4-1.4,1.3
		c-1.2,0-2.4,0.1-3.5-0.3c-0.8-0.3-1.2-0.9-1.3-1.6c-0.2-1.1-0.1-2.2-0.1-3.3c0-0.6,0.5-1,1.1-1.1C106.4,105,106.9,105,107.4,104.9
		C107.4,105,107.4,105,107.4,104.9z"/>
	<path class="st0" d="M107.4,95.1c-0.5,0-1,0-1.5,0c-0.7,0-1.2-0.4-1.2-1.1c0-1.1,0-2.2,0.1-3.3c0.1-0.9,1.2-1.7,2.2-1.8
		c0.9-0.1,1.8-0.1,2.7,0c0.6,0,1.3,0.6,1.3,1.2c0,1.2-0.1,2.4-0.3,3.6c-0.1,0.8-0.9,1.3-1.7,1.4C108.5,95,107.9,95,107.4,95.1
		C107.4,95,107.4,95,107.4,95.1z"/>
	<path class="st0" d="M103.2,100.1c-0.1,0.7-0.2,1.4-0.3,2.1c-0.1,0.6-0.5,0.8-1,0.9c-1.1,0.3-2.3,0.2-3.1-0.6
		c-0.4-0.4-0.5-1.2-0.5-1.8c0-0.9,0.1-1.9,0.2-2.8c0-0.3,0.3-0.8,0.5-0.8c1-0.2,2-0.7,3.1-0.2c0.8,0.3,0.9,0.9,1,1.6
		c0.1,0.5,0,1,0,1.6C103.1,100.1,103.2,100.1,103.2,100.1z"/>
	<path class="st0" d="M128.8,100.1c0-0.4,0-0.8,0-1.3c0-1.6,1.2-2.4,2.7-1.9c0.1,0,0.3,0.1,0.4,0.1c1.3,0.3,1.7,0.7,1.7,2
		c0,0.8,0,1.5,0,2.3c0,1.1-0.5,1.7-1.6,1.8c-0.7,0.1-1.5,0.1-2.2,0c-0.7-0.1-1-0.6-1-1.2C128.8,101.3,128.9,100.7,128.8,100.1
		C128.9,100.1,128.8,100.1,128.8,100.1z"/>
	<path class="st0" d="M115.9,117.7c-0.4,0-0.8,0-1.2,0c-1.5,0.1-1.8-0.8-2-1.9c-0.1-0.4,0-0.9,0-1.3c0-0.8,0.6-1.4,1.4-1.4
		c1.2,0,2.4,0,3.6,0c0.9,0,1.4,0.6,1.4,1.4c0,0.7,0,1.4-0.1,2.1c0,0.5-0.7,1.1-1.2,1.2C117.1,117.7,116.5,117.7,115.9,117.7
		C115.9,117.7,115.9,117.7,115.9,117.7z"/>
	<path class="st0" d="M115.9,87.2c-0.4,0-0.9,0-1.3,0c-1.3,0-1.8-0.5-1.8-1.8c0-0.6,0.1-1.3,0.2-1.9c0.1-0.6,0.6-1,1.2-1
		c1.2,0,2.4,0,3.5,0c0.6,0,1.2,0.6,1.2,1.2c0,0.6,0.1,1.3,0.1,1.9c0,1.1-0.5,1.6-1.6,1.6C116.9,87.2,116.4,87.2,115.9,87.2z"/>
	<path class="st0" d="M103.7,91.7c-0.3,1-0.5,2-0.9,3c-0.1,0.3-0.6,0.6-1,0.7c-0.6,0.1-1.3,0.1-1.9,0.1c-1,0-1.6-0.6-1.4-1.6
		c0.1-0.8,0.2-1.5,0.4-2.3c0.2-0.7,0.7-1.6,1.6-1.7c0.6-0.1,1.2-0.2,1.9-0.3c0.8-0.1,1.3,0.4,1.2,1.2c0,0.3,0,0.6,0,0.8
		C103.6,91.7,103.6,91.7,103.7,91.7z"/>
	<path class="st0" d="M133.2,93.6c0.2,1.9-0.2,2.1-2,1.9c-0.8-0.1-1.6,0-2.2-0.7c-0.2-0.3-0.4-0.6-0.5-0.9c-0.2-0.9-0.3-1.8-0.4-2.8
		c-0.1-0.8,0.5-1.5,1.3-1.5c0.8,0.1,1.7,0.1,2.4,0.5c1.1,0.5,1.1,1.6,1.3,2.6C133.3,93,133.2,93.3,133.2,93.6z"/>
	<path class="st0" d="M131.3,104.6c1.9-0.2,2-0.1,1.9,1.9c0,1.1-0.1,2.1-0.8,3c-0.2,0.3-0.7,0.5-1.2,0.7c-0.6,0.2-1.2,0.3-1.8,0.3
		c-0.9,0.1-1.5-0.8-1.3-1.7c0.1-0.6,0.3-1.2,0.3-1.8c0.1-1.6,0.8-2.3,2.3-2.3C131,104.6,131.2,104.6,131.3,104.6z"/>
	<path class="st0" d="M111.5,84.5c-0.1,0.5-0.2,1-0.3,1.5c-0.2,1-1,1.3-1.8,1.5c-1,0.2-2.1,0.1-3.1,0.1c-0.3,0-0.6-0.3-0.7-0.5
		c-0.3-0.7,0.3-3.1,0.9-3.6c0.3-0.2,0.7-0.5,1-0.5c1.2-0.1,2.3-0.1,3.5-0.1c0.2,0,0.4,0.4,0.5,0.7C111.5,83.9,111.4,84.2,111.5,84.5
		C111.4,84.5,111.5,84.5,111.5,84.5z"/>
	<path class="st0" d="M124.9,87.7c-1-0.1-2-0.3-3-0.5c-0.8-0.2-1.2-0.7-1.3-1.5c-0.1-0.5-0.2-1-0.3-1.5c-0.2-0.8,0.8-1.7,1.6-1.6
		c0.5,0.1,1,0.2,1.5,0.2c1.7,0.1,2.5,0.8,2.7,2.5c0,0.1,0.1,0.3,0.1,0.4C126.7,87,126.3,87.6,124.9,87.7z"/>
	<path class="st0" d="M111.4,115.6c0,0.1,0,0.2,0,0.4c0,1-0.1,1.4-1.1,1.3c-1,0-2.1-0.2-3.1-0.4c-1.2-0.2-1.3-1.2-1.6-2.1
		c0-0.2,0-0.3,0-0.5c-0.2-1.8,0-2,1.8-1.8c0.9,0.1,1.7,0.2,2.6,0.3c1.1,0.2,1.3,1.1,1.5,2.1C111.4,115.2,111.4,115.4,111.4,115.6
		C111.4,115.6,111.4,115.6,111.4,115.6z"/>
	<path class="st0" d="M98.7,104.6c1.4,0.1,2.6-0.3,3.7,0.4c0.3,0.2,0.7,0.5,0.7,0.9c0.2,1.2,0.3,2.5,0.4,3.8c0,0.5-0.3,0.8-0.8,0.8
		c-1.1,0-2.2-0.1-3.1-0.8c-0.4-0.3-0.6-0.9-0.7-1.3c-0.2-0.6-0.2-1.2-0.3-1.8C98.6,105.9,98.7,105.3,98.7,104.6z"/>
	<path class="st0" d="M120.6,117.2c-0.5-1.3-0.3-2.6,0.3-3.7c0.2-0.5,1-0.8,1.6-0.9c0.8-0.2,1.7-0.1,2.6-0.1c1-0.1,1.4,0.5,1.2,1.4
		c-0.1,0.7-0.3,1.4-0.5,2.1c-0.3,0.8-1.1,1.1-1.7,1.2C123,117.3,121.8,117.2,120.6,117.2z"/>
	<path class="st0" d="M101.2,118.4c0.7,0.4,1.5,0.8,1.9,1.7c-1.2-0.4-2.2-1.1-2.9-2.1c-0.2-0.3-0.3-0.7-0.8-0.8
		c-0.2,0-0.4-0.3-0.5-0.5c-0.3-0.5-0.6-0.8-1.2-1c-0.5-0.3-0.9-0.9-1.3-1.5c-0.3-0.5-0.5-1.2-0.8-1.8c-0.3-0.5-0.8-1-1-1.5
		c-0.3-0.7-0.8-1.4-0.5-2.4c0.9,0.6,1.3,1.5,1.7,2.6c0.1-0.6,0.2-0.9,0.2-1.3c1.1,0.3,2.1,0.7,2.6,1.7c0.4,0.9,0.6,1.9,0.9,2.9
		c-1.3,0.3-2.9-1.1-3.3-2.6c-0.4,0.6-0.4,0.9,0.1,1.4c0.5,0.6,0.9,1.2,1.5,1.9c0.1-0.2,0.2-0.4,0.3-0.5
		C99.7,115.4,101.2,116.2,101.2,118.4z"/>
	<path class="st0" d="M95.9,89c-0.4,1-0.8,1.9-1.9,2.7c0-0.5,0-0.9,0.1-1.3c0.4-0.9,0.5-1.9,1.4-2.5c0.1-0.1,0.1-0.2,0.1-0.3
		c0.1-1.3,1-2.4,1.9-3c0.8-0.6,1.3-1.4,2.2-1.9c0.5-0.3,0.6-1,1.1-1.4c0.7-0.6,1.4-1,2.2-1.5c-0.2,1.1-1.3,1.3-2,1.9
		c0.4,1.2-0.5,1.9-1.2,2.6c-0.5,0.5-1.1,0.8-1.8,1.2c-0.1-0.2-0.1-0.3-0.2-0.5c-0.7,0.8-1.3,1.4-1.9,2.1c-0.2,0.2,0,0.7,0.1,1.1
		c0.7-1.5,1.5-2.6,3.4-2.8c-0.3,1.2-0.4,2.3-0.9,3.1c-0.5,0.8-1.6,1.2-2.4,1.8c-0.1,0-0.1-0.1-0.2-0.1C96,89.9,96,89.4,95.9,89z"/>
	<path class="st0" d="M137.2,94.4c0,0.4,0,0.7-0.1,1.1c-0.1,0.6-0.4,0.9-1,0.8c-1.2-0.1-2-1-2.1-2.3c0-0.6-0.3-1.3-0.3-1.9
		c0-0.4,0.1-0.9,0.4-1.2c0.1-0.2,0.7,0,1,0.1c0.7,0.2,1.3,0.6,1.5,1.3c0.1,0.5,0.2,0.9,0.4,1.4c0.1-0.4,0.1-0.9,0.2-1.5
		c0.4,0.2,0.7,0.3,0.9,0.5c0.9,0.9,1.5,1.9,1.4,3.3c0,0.3,0.1,0.5,0.2,0.7c-0.4,0-0.8,0-1.2,0c-0.5,0-0.9-0.5-1-1.1
		c0-0.4-0.1-0.8-0.1-1.3C137.4,94.3,137.3,94.3,137.2,94.4z"/>
	<path class="st0" d="M118.9,76.2c1.8,0,3.4,0.5,4.7,1.9c0.1,0.1,0,0.3-0.1,0.5c-0.1,0.1-0.2,0.2-0.3,0.3c-0.1,0.1-0.2,0.1-0.4,0.2
		c0.5,0.2,1.1,0.3,1.4,0.6c0.4,0.5,0.7,1.2,1,1.9c0,0.1-0.3,0.4-0.5,0.5c-1.4,0.1-2.7,0-4-0.5c-0.7-0.3-1.2-1.5-0.8-2.7
		c0.7,0,1.5,0,2.2,0c0-0.1,0-0.2,0-0.2c-0.2,0-0.5-0.1-0.7-0.1c-0.5-0.1-1.1-0.1-1.5-0.3c-0.7-0.3-0.8-0.8-0.3-1.5
		c-0.3-0.1-0.6-0.2-0.9-0.3C118.8,76.3,118.9,76.3,118.9,76.2z"/>
	<path class="st0" d="M139,106.4c-0.2,0.3-0.4,0.6-0.6,0.8c-0.2,0.2-0.5,0.4-0.8,0.5c-0.1-0.2-0.3-0.5-0.4-0.7
		c-0.1-0.2-0.1-0.5-0.2-0.7c-0.2,0.6-0.3,1.2-0.5,1.8c-0.2,0.7-1.5,1.3-2.2,1.2c-0.4-0.1-0.7-0.8-0.6-1.3c0.1-0.6,0.2-1.1,0.3-1.7
		c0.1-0.5,0.2-1.1,0.5-1.6c0.3-0.7,1.9-1,2.4-0.5c0.1,0.1,0.2,0.4,0.3,0.6c0.1,0.3,0.1,0.7,0.2,1c0.3-1.2,0-2.8,2.1-2.3
		C139.9,104.5,139.3,105.5,139,106.4z"/>
	<path class="st0" d="M106.8,82.1c-0.2-1.8,0.6-2.8,2.4-3c-0.4-0.3-0.7-0.5-1-0.7c0.7-1.4,3.3-2.3,5-2.1c-0.4,0.1-0.6,0.2-0.9,0.3
		c0.5,0.9,0,1.8-1.2,1.9c-0.5,0-1,0.1-1.5,0.1c0,0.1,0,0.2,0,0.3c0.6,0,1.1,0,1.7,0c0.7,0,0.8,0.2,0.7,0.9c-0.1,0.6,0,1.3-0.7,1.7
		c-0.4,0.2-0.9,0.4-1.4,0.5C108.9,82,107.8,82,106.8,82.1z"/>
	<path class="st0" d="M122.6,121c1.6,0.8,1.4,0.7,0.3,1.7c-1.1,1-2.5,0.9-3.7,1.2c-0.1,0-0.2-0.1-0.5-0.1c0.4-0.1,0.6-0.2,0.8-0.3
		c-0.1-1.6,0.1-1.9,1.7-1.9c0.3,0,0.7-0.1,1-0.1c0-0.1,0-0.2,0-0.3c-0.7,0-1.5-0.1-2.2-0.1c-0.5-1.3,0.1-2.5,1.4-2.8
		c1-0.2,2.1-0.3,3.1-0.4c0.8,0,0.8,0.2,0.6,0.9c-0.2,0.7-0.4,1.4-1.2,1.7C123.5,120.8,123.1,120.9,122.6,121z"/>
	<path class="st0" d="M109.7,121.5c0.5,0,1,0,1.4,0.1c0.4,0.1,0.8,0.2,1.1,0.4c0.4,0.3,0.6,0.8,0,1.3c0.3,0.1,0.6,0.2,0.9,0.3
		c-0.1,0.1-0.2,0.2-0.2,0.2c-1.2-0.3-2.5-0.1-3.6-1.1c-0.1-0.1-0.2-0.1-0.3-0.2c-0.3-0.2-0.9-0.3-0.8-0.8c0.1-0.3,0.5-0.5,0.9-0.8
		c-1.6-0.2-2.5-1.1-2.4-2.9c1.5-0.1,3-0.1,4.4,0.5c0.4,0.2,0.7,0.6,0.8,1.1c0.1,1.5,0.1,1.5-1.4,1.5c-0.3,0-0.5,0-0.8,0.1
		C109.7,121.4,109.7,121.5,109.7,121.5z"/>
	<path class="st0" d="M94.9,96.2c0-0.2,0-0.3-0.1-0.4c-0.1-0.2-0.2-0.3-0.3-0.4c-0.1,0.1-0.3,0.2-0.4,0.4c-0.3,0.7-0.4,0.8-1.2,0.9
		c-0.1-0.2-0.1-0.4-0.2-0.5c-0.1,0-0.1,0-0.2,0c-0.1,0.3-0.1,0.6-0.2,0.9c-0.1,0-0.1,0-0.2,0c0-0.5,0-1,0-1.4c0-0.4,0.2-0.8,0.3-1.2
		c0-0.1,0-0.3,0.1-0.4c0.3-0.5,0.7-0.9,1-1.3c0.2-0.2,0.4-0.3,0.6-0.5c0.1,0,0.1,0.1,0.2,0.1c0,0.9,0,1.8,0,2.7c0.1,0,0.2,0,0.3,0
		c0-0.3,0.1-0.7,0.1-1c-0.1-1,0.2-1.8,0.9-2.5c0.4-0.4,1.2-0.6,1.8-0.8c0.1,0,0.4,0.2,0.4,0.3c0.2,1.4-0.1,2.8-0.5,4.1
		C97.1,95.9,96,96.3,94.9,96.2z"/>
	<path class="st0" d="M94.5,105c0,0.9,0,1.8,0,2.7c-0.1,0-0.1,0.1-0.2,0.1c-0.2-0.2-0.5-0.3-0.7-0.5c-1-1.1-1.4-2.4-1.5-3.8
		c0-0.1,0-0.3,0-0.4c0-0.1,0.1-0.1,0.2-0.2c0.1,0.4,0.2,0.8,0.3,1.1c0,0,0.1,0,0.1,0c0.1-0.2,0.1-0.4,0.2-0.6c0.5,0,0.9,0.1,1.1,0.6
		c0.1,0.2,0.3,0.4,0.5,0.6c0.2-0.2,0.3-0.4,0.5-0.8c1.3-0.3,2.4,0.5,2.6,1.8c0.1,0.9,0.3,1.9,0.3,2.8c0,0.7-0.3,1-1,0.7
		c-1.6-0.5-2-1.5-2.1-3.1c0-0.4,0-0.8-0.1-1.2C94.7,105,94.6,105,94.5,105z"/>
	<path class="st0" d="M100.7,88.8c-0.9,0-1.2-0.5-1-1.3c0.2-0.7,0.4-1.3,0.7-1.9c0.2-0.4,0.6-0.8,1.1-1c0.8-0.3,1.6-0.6,2.4-0.7
		c0.2,0,0.8,0.5,0.8,0.6c-0.3,1.3-0.2,2.8-1.6,3.7c-0.1,0-0.1,0.1-0.2,0.1C102.1,88.5,101.4,88.6,100.7,88.8z"/>
	<path class="st0" d="M100.8,111.3c0.8,0.5,2.2,0.1,2.9,1.2c0.3,0.4,0.4,0.9,0.6,1.4c0.1,0.3,0.2,0.7,0.3,1c0,0.4,0.1,0.8-0.1,1.1
		c-0.2,0.3-0.6,0.4-1.1,0.2c-0.8-0.4-1.6-0.5-2.4-0.9c-0.3-0.2-0.5-0.6-0.7-1c-0.3-0.6-0.5-1.2-0.7-1.8
		C99.5,111.7,99.8,111.3,100.8,111.3z"/>
	<path class="st0" d="M132,88.9c-0.7-0.2-1.3-0.3-1.9-0.4c-0.5-0.1-1.1-0.3-1.6-0.6c-0.4-0.2-0.6-0.7-0.8-1.1
		c-0.2-0.7-0.4-1.4-0.5-2.1c-0.1-0.7,0.3-1,0.9-0.8c0.9,0.3,1.8,0.5,2.6,0.9c0.5,0.3,0.8,0.9,1,1.5C131.9,87.2,132.2,87.9,132,88.9z
		"/>
	<path class="st0" d="M132.1,112.4c-0.2,1.1-0.4,2.4-1.6,3.1c-0.8,0.4-1.9,0.5-2.8,0.7c-0.1,0-0.4-0.3-0.4-0.4
		c0-1.2,0.2-2.4,0.9-3.3c0.2-0.3,0.5-0.5,0.8-0.6c0.7-0.2,1.4-0.3,2.2-0.4C132,111.2,132.1,111.4,132.1,112.4z"/>
	<path class="st0" d="M137,97.5c0.8,1,0.6,2.1,0.6,3.1c0,0.6-0.1,1.3-0.5,1.7c-0.3,0.3-1,0.4-1.5,0.4c-0.6,0-1-0.3-1.1-1
		c0-1.2,0-2.4,0-3.7c0-0.7,0.9-1.2,1.7-0.9C136.5,97.4,136.8,97.4,137,97.5z"/>
	<path class="st0" d="M115.9,121.6c-0.4,0-0.8,0-1.3,0c-0.9,0-1.4-0.6-1.5-1.4c-0.1-1.1,0.3-1.6,1.3-1.6c1.3,0,2.5,0.1,3.8,0.2
		c0.2,0,0.4,0.3,0.5,0.6c0.1,0.3,0,0.7,0,1.1c-0.1,0.7-0.5,1.1-1.3,1.2c0,0-0.1,0-0.1,0C116.8,121.6,116.3,121.6,115.9,121.6
		C115.9,121.6,115.9,121.6,115.9,121.6z"/>
	<path class="st0" d="M116,78.4c0.7,0.1,1.4,0.2,2.1,0.3c0.5,0.1,0.6,0.5,0.6,1c0.1,1.5-0.2,1.8-1.7,1.8c-0.8,0-1.6,0-2.4,0
		c-0.9,0-1.4-0.5-1.4-1.2c0-1.1,0.7-1.8,1.4-1.8c0.5,0,0.9,0,1.4,0C116,78.5,116,78.4,116,78.4z"/>
	<path class="st0" d="M96.3,97.2c0.4,0.1,0.9,0.3,1,0.9c0,1.3,0,2.6,0,3.9c0,0.3-0.3,0.7-0.6,0.8c-1,0.5-2.2-0.3-2.2-1.4
		c0-0.8,0-1.6,0-2.4C94.4,97.7,94.9,97.2,96.3,97.2z"/>
	<path class="st0" d="M106.1,119.9c-0.3,0.1-0.6,0.2-0.9,0.3c0.8,0.5,1.5,1,2.3,1.5c0,0.1-0.1,0.2-0.1,0.3c-0.2,0-0.5,0.1-0.7,0
		c-1-0.4-2.2-0.5-2.9-1.5c-0.1-0.1-0.3-0.2-0.3-0.2c0.4-1.1-0.7-1-1.1-1.5c-0.4-0.5-0.7-1.1-1-1.8c-0.2-0.4,0.1-0.7,0.5-0.5
		c0.6,0.2,1.2,0.4,1.9,0.5C105.3,117.4,105.8,118.5,106.1,119.9z"/>
	<path class="st0" d="M136.2,89.5c-0.1,0.3-0.2,0.5-0.3,0.6c-0.1,0.1-0.3,0.2-0.4,0.2c-0.6-0.3-1.4-0.6-1.9-1.1
		c-0.8-0.9-1.1-2-1.2-3.2c0-0.4,0.5-0.6,0.9-0.3c0.9,0.6,1.8,1.1,2,2.4c0.2-0.2,0.4-0.3,0.5-0.4c1.4,0.9,1.8,2.3,2.1,3.8
		C137.2,91.4,137.2,91.4,136.2,89.5z"/>
	<path class="st0" d="M124.3,121.9c0.5-1,1.4-1.3,2.4-1.7c-0.3-0.1-0.6-0.1-0.9-0.2c-0.3-1.7,2.2-3.7,4.7-3.4
		c-0.2,0.5-0.2,0.9-0.5,1.3c-0.4,0.5-1,1-1.5,1.4c-0.1,0.1-0.3,0.3-0.3,0.4c0.1,0.7-0.3,1.1-0.8,1.4c-0.7,0.4-1.5,0.7-2.3,1
		C124.8,122,124.6,121.9,124.3,121.9z"/>
	<path class="st0" d="M107.5,78.5c-0.8,0.5-1.5,1-2.3,1.5c0.2,0.1,0.5,0.2,0.9,0.3c-0.2,0.9-0.4,1.8-1.3,2.4
		c-0.2,0.1-0.5,0.3-0.8,0.4c-0.6,0.2-1.1,0.4-1.7,0.6c-0.2,0.1-0.7,0-0.8-0.1c-0.1-0.3-0.1-0.6,0-0.9c0.3-0.5,0.7-1,1.2-1.5
		c0.1-0.1,0.3-0.2,0.5-0.3c0.1-0.1,0.4-0.3,0.4-0.4c-0.2-0.7,0.3-1.1,0.8-1.3c0.9-0.5,1.9-1.2,3-1C107.5,78.3,107.5,78.4,107.5,78.5
		z"/>
	<path class="st0" d="M136.2,110.5c1.1-1.9,1.1-1.9,1.8-1.9c-0.3,1.5-0.8,2.9-2.1,3.9c-0.1-0.1-0.2-0.3-0.4-0.4
		c-0.1,0-0.2,0.1-0.2,0.1c-0.3,1.3-1.3,1.8-2.4,2.2c-0.4,0.2-0.6,0-0.5-0.4c0.2-1.2,0.5-2.3,1.3-3.3c0.2-0.3,0.7-0.4,1.1-0.6
		c0.1,0,0.2,0,0.3-0.1C135.8,109.8,135.8,109.8,136.2,110.5z"/>
	<path class="st0" d="M125.6,80.2c0.5-0.1,0.8-0.2,1.3-0.3c-0.6-0.3-1.1-0.4-1.5-0.6c-0.4-0.2-0.7-0.6-1.2-1c1-0.4,1.6,0.1,2.2,0.3
		c0.3,0.1,0.6,0.3,0.9,0.5c0.4,0.3,1,0.5,0.7,1.2c0,0.1,0.2,0.4,0.3,0.5c0.9,0.2,1.3,1,1.7,1.7c0,0,0,0.1,0,0.1
		c0.2,0.3,0.6,0.7,0.2,0.9c-0.3,0.2-0.8,0-1.2-0.1c-0.6-0.1-1.1-0.4-1.6-0.5c-0.8-0.2-1.2-0.8-1.4-1.5C126,81,125.8,80.6,125.6,80.2
		z"/>
	<path class="st0" d="M146.5,68.6c1.1,0,2.1,0.9,2.1,2c0,0.9-1,1.9-2,1.9c-1.1,0-2-0.9-2.1-1.9C144.4,69.6,145.4,68.6,146.5,68.6z"
		/>
	<path class="st0" d="M99.8,141c-1.2,0-1.8-0.7-1.9-2c-0.1-1.1,1.1-1.9,1.9-1.9c1.2-0.1,2,1.1,2,2C101.9,140.1,100.9,141,99.8,141z"
		/>
	<path class="st0" d="M101.2,61c0,1.1-0.8,2-1.9,2c-1,0-2.1-1.1-2.1-2c0-0.8,0.8-2,2-1.9C100.6,59.1,101.2,59.7,101.2,61z"/>
	<path class="st0" d="M115.7,144.2c-1,0.1-1.9-0.8-1.9-2c0-1.3,1-1.9,2-1.9c1-0.1,2,1.1,2,2C117.7,143.4,116.8,144.2,115.7,144.2z"
		/>
	<path class="st0" d="M78.3,84.3c0.1,1.2-1,2-2,2c-1,0-2-1.1-2-2.1c0-0.8,0.9-1.9,2-1.9C77.6,82.4,78.4,83.4,78.3,84.3z"/>
	<path class="st0" d="M131.6,141c-1.3,0-1.9-0.7-1.9-1.9c0-1,0.9-2,1.9-2c1,0,2.1,1.1,2,2.1C133.6,140.3,132.8,141,131.6,141z"/>
	<path class="st0" d="M160.1,100.4c0,1.2-0.7,1.9-1.9,1.9c-1.3,0-2-0.7-2-1.8c-0.1-1.2,1.2-2.1,2-2.1
		C159.3,98.3,160.1,99.3,160.1,100.4z"/>
	<path class="st0" d="M153.5,84.4c0-1.3,0.7-1.9,2-1.9c1.1,0,1.9,0.9,1.9,2c0,1.1-0.9,2-2,2C154.2,86.4,153.5,85.5,153.5,84.4z"/>
	<path class="st0" d="M146.2,128c1.2-0.1,1.9,1.1,1.9,2c0,1.1-0.9,1.9-2,1.9c-1.1,0-1.9-0.7-1.9-2C144.2,128.8,145,127.8,146.2,128z
		"/>
	<path class="st0" d="M86,128.3c1.3,0,1.9,0.9,2,2c0.1,0.9-1,1.9-2,1.9c-1,0-2-1-1.9-2C84.1,129.1,84.7,128.2,86,128.3z"/>
	<path class="st0" d="M116.1,55.9c1.4-0.1,1.8,0.8,1.9,1.8c0.1,1.1-0.8,2-1.9,2c-1,0-1.9-0.4-1.9-1.9
		C114.3,56.5,114.8,55.9,116.1,55.9z"/>
	<path class="st0" d="M76.8,117.8c-1.2,0-2-0.8-2-1.9c0-1.2,0.8-1.9,2-1.9c1.1,0,2,0.9,2,1.9C78.9,116.9,77.9,117.8,76.8,117.8z"/>
	<path class="st0" d="M87,70.9c0,1.2-0.7,2-1.8,2c-1,0-2-1-2-2c0-1,0.8-2,2-1.9C86.1,68.9,87.2,69.8,87,70.9z"/>
	<path class="st0" d="M73.6,98.2c1.2-0.2,1.9,0.8,1.9,1.9c0,1.1-0.8,1.9-1.9,1.9c-1,0-2.2-1-2.1-1.9C71.6,99.1,72.6,98.3,73.6,98.2z
		"/>
	<path class="st0" d="M132.6,63.1c-1.3,0-2-0.7-2-1.8c0-1.1,0.9-2.1,2.1-2c0.7,0,1.9,0.9,1.8,1.9C134.3,62.5,133.8,63.1,132.6,63.1z
		"/>
	<path class="st0" d="M155.3,117.7c-1.2,0-1.9-0.6-1.9-1.8c-0.1-1.2,0.8-1.9,2-1.9c1.1,0,2,0.9,1.9,1.9
		C157.2,116.7,156.6,117.8,155.3,117.7z"/>
	<path class="st0" d="M135.8,87.3c-0.5-0.6-1-1.3-1.5-1.9c-1,0.2-2.5-0.8-2.9-1.6c-0.3-0.6-1.2-1-0.5-1.8c-0.8-0.6-1.5-1.3-2.3-1.9
		c0-0.1,0.1-0.1,0.1-0.2c0.2,0.1,0.3,0.1,0.5,0.2c0.8,0.5,1.6,1,2.2,1.7c0.6,0.7,1.2,1.5,1.9,2.1c0.4,0.4,1,0.7,1.3,1.1
		c0.5,0.5,0.9,1.2,1.3,1.8c0.1,0.1,0.1,0.3,0.1,0.5C135.9,87.2,135.9,87.2,135.8,87.3z"/>
	<path class="st0" d="M136,113c-0.1,0.3-0.2,0.5-0.4,0.8c-0.5,0.7-1,1.6-1.7,2c-0.8,0.5-1.6,1.2-2.1,1.9c-0.6,1-1.5,1.4-2.3,2.1
		c-0.2,0.1-0.5,0.2-0.7,0.2c0-0.1-0.1-0.2-0.1-0.2c0.6-0.5,1.3-1,1.7-1.4c0.1-0.5,0.1-0.8,0.2-1.1c0.4-1,1.1-1.8,2-2.2
		c0.3-0.1,0.7-0.2,1.1-0.2c0.2,0,0.4-0.1,0.5-0.2c0.5-0.6,0.9-1.2,1.3-1.8C135.8,112.9,135.9,112.9,136,113z"/>
	<path class="st0" d="M94,100.1c0,0.5,0,0.9,0,1.4c0,0.3-0.2,0.7-0.4,0.8c-0.3,0.2-0.6-0.2-0.8-0.3c-1.1-0.4-1-1.3-1-2.1
		c0-0.6-0.1-1.5,0.9-1.6c0.1,0,0.1-0.2,0.1-0.2c0.2-0.1,0.5-0.3,0.6-0.2c0.2,0.1,0.4,0.3,0.5,0.5C94.1,98.9,94,99.5,94,100.1
		C94.1,100.1,94,100.1,94,100.1z"/>
	<path class="st0" d="M115.8,137c-0.9,0-1.5-0.7-1.5-1.6c0-0.9,0.7-1.5,1.6-1.5c0.9,0,1.5,0.6,1.5,1.6
		C117.4,136.4,116.7,137,115.8,137z"/>
	<path class="st0" d="M114.1,123.7c0.2-0.1,0.3-0.2,0.6-0.4c-0.3-0.1-0.5,0-0.7-0.2c-0.2-0.2-0.4-0.4-0.4-0.6c0-0.1,0.3-0.5,0.5-0.5
		c1.4,0,2.7,0,4.1,0c0,0.4,0,0.7,0,1.1c-0.3,0.1-0.5,0.1-0.9,0.2c0.2,0.2,0.4,0.3,0.5,0.4C117.8,124.1,114.9,124.2,114.1,123.7z"/>
	<path class="st0" d="M114.6,76.8c-0.2-0.2-0.4-0.3-0.5-0.4c0.6-0.4,2.9-0.4,3.6,0c-0.1,0.1-0.3,0.3-0.5,0.5
		c0.3,0.1,0.6,0.1,0.8,0.1c0.2,1,0.2,1.1-0.8,1.1c-0.9,0-1.9,0-2.8,0c-0.5,0-0.9,0-0.9-0.6c0-0.6,0.4-0.6,0.8-0.6
		C114.4,76.9,114.5,76.8,114.6,76.8z"/>
	<path class="st0" d="M90.3,76.9c-0.9,0.1-1.5-0.7-1.5-1.5c0-1.1,0.4-1.5,1.4-1.6c0.9-0.1,1.6,0.6,1.6,1.6
		C91.8,76.2,91.2,77,90.3,76.9z"/>
	<path class="st0" d="M151.4,98.7c0.9-0.1,1.6,0.9,1.6,1.5c0,0.8-0.8,1.6-1.7,1.6c-0.9,0-1.5-0.7-1.5-1.6
		C149.9,99.4,150.5,98.7,151.4,98.7z"/>
	<path class="st0" d="M81.8,113.6c0-0.9,0.6-1.5,1.5-1.5c0.9,0,1.6,0.6,1.6,1.5c0,0.8-0.8,1.6-1.7,1.6
		C82.4,115.2,81.8,114.6,81.8,113.6z"/>
	<path class="st0" d="M100.8,132.7c0-0.9,0.7-1.6,1.5-1.6c0.8,0,1.6,0.7,1.6,1.6c0,0.9-0.7,1.5-1.6,1.5
		C101.4,134.2,100.8,133.6,100.8,132.7z"/>
	<path class="st0" d="M149,111.7c0.9,0,1.6,0.6,1.6,1.4c0,0.8-0.8,1.6-1.5,1.6c-0.9,0-1.6-0.7-1.6-1.6
		C147.5,112.1,147.9,111.7,149,111.7z"/>
	<path class="st0" d="M116,63.1c1,0,1.4,0.5,1.4,1.5c0,0.9-0.6,1.6-1.5,1.5c-0.8,0-1.6-0.8-1.6-1.5C114.3,63.8,115.1,63.1,116,63.1z
		"/>
	<path class="st0" d="M84.2,86.8c0,0.9-0.6,1.6-1.5,1.6c-0.8,0-1.6-0.8-1.5-1.6c0-0.9,0.6-1.5,1.5-1.5
		C83.8,85.2,84.2,85.7,84.2,86.8z"/>
	<path class="st0" d="M80.5,98.7c0.9,0,1.6,0.7,1.6,1.6c0,0.8-0.8,1.5-1.6,1.5c-0.8,0-1.5-0.7-1.5-1.5C79,99.3,79.6,98.7,80.5,98.7z
		"/>
	<path class="st0" d="M90.9,124c0.9,0,1.5,0.6,1.5,1.5c0,0.8-0.8,1.6-1.6,1.6c-0.9,0-1.5-0.8-1.5-1.6C89.3,124.6,90,124,90.9,124z"
		/>
	<path class="st0" d="M149,88.4c-0.8,0-1.5-0.7-1.5-1.6c0-0.9,0.6-1.5,1.5-1.6c0.8,0,1.6,1,1.6,1.6C150.6,87.7,149.8,88.4,149,88.4z
		"/>
	<path class="st0" d="M139.6,125.2c0-0.8,0.8-1.6,1.6-1.6c0.6,0,1.6,0.9,1.5,1.7c-0.1,0.8-0.7,1.5-1.6,1.5
		C140.2,126.7,139.6,126.1,139.6,125.2z"/>
	<path class="st0" d="M131.3,67.5c0,1.1-0.4,1.5-1.5,1.5c-0.8,0-1.6-0.8-1.6-1.6c0-0.6,1-1.5,1.6-1.5
		C130.7,65.9,131.3,66.6,131.3,67.5z"/>
	<path class="st0" d="M141.5,73.7c0.9,0,1.7,0.7,1.6,1.5c-0.1,0.9-0.6,1.4-1.6,1.4c-0.9,0-1.6-0.3-1.5-1.6
		C140.1,74.2,140.6,73.7,141.5,73.7z"/>
	<path class="st0" d="M103.6,67.2c0,0.9-0.6,1.5-1.4,1.6c-0.8,0-1.6-0.8-1.6-1.6c0-0.9,0.6-1.6,1.5-1.6
		C103,65.6,103.6,66.3,103.6,67.2z"/>
	<path class="st0" d="M130.4,132.9c0,0.9-0.6,1.5-1.4,1.5c-0.8,0-1.6-0.8-1.6-1.6c0-0.9,0.6-1.4,1.6-1.4
		C130,131.4,130.4,131.9,130.4,132.9z"/>
	<path class="st0" d="M139.8,98.3c0,1.2,0,2.3,0,3.5c0,0-0.1,0-0.1,0c-0.1-0.2-0.2-0.3-0.3-0.5c-0.1,0-0.1,0-0.2,0
		c-0.1,0.3-0.1,0.5-0.2,0.9c-0.3,0-0.6,0.1-1,0.1c0-1.5,0-3,0-4.5c0.4,0,0.7,0.1,1,0.1c0.1,0.3,0.1,0.6,0.2,1.1
		c0.2-0.4,0.3-0.5,0.4-0.7C139.8,98.3,139.8,98.3,139.8,98.3z"/>
	<path class="st0" d="M137.4,80.4c-0.7,0-1.3-0.6-1.3-1.3c0-0.7,0.7-1.3,1.3-1.3c0.6,0,1.3,0.8,1.3,1.4
		C138.7,79.6,138,80.5,137.4,80.4z"/>
	<path class="st0" d="M88.7,110.5c0.7,0,1.3,0.6,1.3,1.2c0,0.7-0.6,1.2-1.4,1.2c-0.8,0-1.3-0.5-1.3-1.2
		C87.4,111,87.9,110.5,88.7,110.5z"/>
	<path class="st0" d="M94.7,77.8c0.6,0,1.3,0.6,1.3,1.3c0,0.6-0.7,1.3-1.3,1.3c-0.7,0-1.3-0.7-1.3-1.3C93.3,78.3,94,77.8,94.7,77.8z
		"/>
	<path class="st0" d="M104.5,71c0.6,0,1.3,0.7,1.3,1.4c0,0.7-0.6,1.3-1.2,1.3c-0.7,0-1.3-0.6-1.3-1.3C103.2,71.7,103.9,71,104.5,71z
		"/>
	<path class="st0" d="M115.9,131.1c-0.9,0-1.2-0.4-1.2-1.2c0-0.7,0.5-1.3,1.2-1.4c0.7,0,1.2,0.5,1.2,1.3
		C117.1,130.6,116.6,131.1,115.9,131.1z"/>
	<path class="st0" d="M145.7,99c0.7,0,1.3,0.6,1.3,1.2c0,0.6-0.7,1.2-1.4,1.2c-0.8,0-1.2-0.5-1.3-1.3
		C144.4,99.5,144.8,98.9,145.7,99z"/>
	<path class="st0" d="M114.7,70.2c0-0.8,0.4-1.3,1.3-1.3c0.7,0,1.2,0.6,1.2,1.3c0,0.7-0.5,1.2-1.3,1.2
		C115,71.4,114.7,71.1,114.7,70.2z"/>
	<path class="st0" d="M135.6,121.4c0-0.6,0.7-1.3,1.3-1.3c0.6,0,1.3,0.7,1.3,1.4c0,0.8-0.6,1.3-1.3,1.2
		C136.2,122.7,135.6,122,135.6,121.4z"/>
	<path class="st0" d="M93.7,121.5c0-0.7,0.6-1.3,1.2-1.3c0.6,0,1.4,0.8,1.4,1.3c0,0.7-0.6,1.2-1.3,1.2
		C94.2,122.7,93.7,122.2,93.7,121.5z"/>
	<path class="st0" d="M143.8,109.7c0.6,0,1.4,0.7,1.3,1.3c-0.1,0.8-0.5,1.1-1.3,1.2c-0.6,0-1.3-0.6-1.3-1.2
		C142.4,110.4,143.1,109.7,143.8,109.7z"/>
	<path class="st0" d="M143.7,87.7c0.6,0,1.3,0.6,1.4,1.1c0,0.6-0.8,1.4-1.4,1.5c-0.5,0-1.2-0.7-1.2-1.3
		C142.4,88.3,143,87.7,143.7,87.7z"/>
	<path class="st0" d="M126.5,72.7c0-0.9,0.4-1.3,1.2-1.3c0.7,0,1.3,0.6,1.3,1.3c0,0.6-0.7,1.3-1.3,1.3C127,74,126.5,73.5,126.5,72.7
		z"/>
	<path class="st0" d="M85,100.2c0-0.8,0.5-1.2,1.3-1.2c0.6,0,1.2,0.5,1.2,1.3c0,0.7-0.5,1.2-1.2,1.2C85.5,101.5,84.8,101,85,100.2z"
		/>
	<path class="st0" d="M105.5,127.4c0,0.8-0.5,1.3-1.2,1.3c-0.7,0-1.2-0.4-1.2-1.2c0-0.7,0.5-1.4,1.2-1.4
		C104.9,126,105.5,126.7,105.5,127.4z"/>
	<path class="st0" d="M125.4,127.7c0-0.7,0.6-1.3,1.2-1.3c0.7,0,1.3,0.5,1.3,1.2c0,0.7-0.7,1.4-1.4,1.4
		C126,129,125.4,128.3,125.4,127.7z"/>
	<path class="st0" d="M86.9,88.7c0-0.9,0.3-1.2,1.1-1.2c0.7,0,1.4,0.5,1.3,1.2C89.3,89.6,89,90,88.1,90C87.2,90,86.9,89.7,86.9,88.7
		z"/>
</g>
</svg>
